<svg xmlns="http://www.w3.org/2000/svg" width="1600" height="1000" viewBox="0 0 1600 1000" role="img" aria-labelledby="title desc">
  <title id="title">Three-step response after an animal exposure</title>
  <desc id="desc">A language-neutral editorial diagram showing washing with water and soap, professional medical assessment, and keeping a portable treatment record.</desc>
  <rect width="1600" height="1000" fill="#f4f1e8"/>
  <circle cx="220" cy="170" r="240" fill="#d9ebe7" opacity="0.9"/>
  <circle cx="1370" cy="850" r="310" fill="#f3d7c6" opacity="0.82"/>
  <path d="M245 510 H1345" stroke="#264b4a" stroke-width="22" stroke-linecap="round" opacity="0.22"/>
  <path d="M540 510 l-48 -34 v68z" fill="#264b4a" opacity="0.55"/>
  <path d="M1050 510 l-48 -34 v68z" fill="#264b4a" opacity="0.55"/>
  <g transform="translate(115 245)">
    <rect x="0" y="0" width="390" height="530" rx="54" fill="#ffffff" stroke="#82aaa4" stroke-width="8"/>
    <circle cx="195" cy="105" r="48" fill="#277d77"/>
    <path d="M195 54 C180 80 154 109 154 137 a41 41 0 0 0 82 0 c0-28-26-57-41-83z" fill="#ffffff"/>
    <path d="M105 240 h180" stroke="#277d77" stroke-width="24" stroke-linecap="round"/>
    <path d="M125 240 c0 52 22 80 70 80s70-28 70-80" fill="none" stroke="#277d77" stroke-width="18"/>
    <rect x="105" y="360" width="180" height="88" rx="20" fill="#d9ebe7"/>
    <circle cx="150" cy="404" r="18" fill="#277d77"/>
    <circle cx="195" cy="404" r="18" fill="#277d77"/>
    <circle cx="240" cy="404" r="18" fill="#277d77"/>
  </g>
  <g transform="translate(605 245)">
    <rect x="0" y="0" width="390" height="530" rx="54" fill="#ffffff" stroke="#d6875b" stroke-width="8"/>
    <circle cx="195" cy="105" r="48" fill="#c8643c"/>
    <path d="M171 105 h48 M195 81 v48" stroke="#ffffff" stroke-width="16" stroke-linecap="round"/>
    <circle cx="195" cy="285" r="92" fill="#f3d7c6"/>
    <path d="M150 286 l30 31 64-70" fill="none" stroke="#c8643c" stroke-width="20" stroke-linecap="round" stroke-linejoin="round"/>
    <path d="M120 432 h150" stroke="#c8643c" stroke-width="18" stroke-linecap="round" opacity="0.6"/>
  </g>
  <g transform="translate(1095 245)">
    <rect x="0" y="0" width="390" height="530" rx="54" fill="#ffffff" stroke="#52739b" stroke-width="8"/>
    <circle cx="195" cy="105" r="48" fill="#405f87"/>
    <path d="M174 82 h42 a12 12 0 0 1 12 12 v42 a12 12 0 0 1-12 12 h-42 a12 12 0 0 1-12-12 V94 a12 12 0 0 1 12-12z" fill="none" stroke="#ffffff" stroke-width="10"/>
    <rect x="105" y="205" width="180" height="240" rx="18" fill="#e1e9f2" stroke="#405f87" stroke-width="12"/>
    <path d="M145 270 h100 M145 325 h100 M145 380 h68" stroke="#405f87" stroke-width="15" stroke-linecap="round" opacity="0.72"/>
    <path d="M240 370 l20 21 38-46" fill="none" stroke="#c8643c" stroke-width="14" stroke-linecap="round" stroke-linejoin="round"/>
  </g>
</svg>
