<svg xmlns="http://www.w3.org/2000/svg" viewBox="0 0 900 190" role="img" aria-label="">
  <g fill="none" fill-rule="evenodd">
    <path d="M18 103c117-44 221-54 312-29 82 22 164 18 247-14 93-36 190-31 291 15l-17 75H31z" fill="#dcd6c6" opacity=".42"/>
    <path d="M37 123c119-35 225-40 318-14 87 25 172 20 255-14 83-34 165-33 246 3l-9 55H45z" fill="#cfc8b5" opacity=".3"/>
    <path d="M66 145c129-24 244-23 346 4 99 27 219 24 359-9" stroke="#b5ab94" stroke-width="10" stroke-linecap="round" opacity=".3"/>
    <path d="M102 164c108-17 207-13 296 12m227-4c65-18 125-21 180-9" stroke="#a2977e" stroke-width="5" stroke-linecap="round" opacity=".32"/>
    <path d="M141 91c72-26 141-28 207-7m282-18c59-24 112-25 159-3" stroke="#efeadb" stroke-width="24" stroke-linecap="round" opacity=".5"/>
  </g>
</svg>
