<svg xmlns="http://www.w3.org/2000/svg" viewBox="0 0 300 400" role="img" aria-label="">
  <g fill="none" fill-rule="evenodd">
    <path d="M152 390c-7-70-4-138 12-206m-9 148-44-38m52-30 48-62m-44 18-28-58" stroke="#414c42" stroke-width="9" stroke-linecap="round" opacity=".76"/>
    <g fill="#8ba081" opacity=".5">
      <path d="M52 172c-6-46 18-78 66-93 44-13 79 2 100 40 10 38-3 68-38 90-45 17-84 3-128-37z"/>
      <path d="M122 86c22-34 52-46 90-33 32 11 50 35 53 72-22 27-51 37-85 30-35-8-54-31-58-69z"/>
    </g>
    <g fill="#6d8465" opacity=".62">
      <path d="M86 140c16-27 41-37 74-29 27 7 43 25 48 53-19 24-44 32-73 24-31-8-47-24-49-48z"/>
      <path d="M158 198c24-20 50-22 77-5 21 14 29 35 22 63-27 18-56 18-84 0-24-16-29-35-15-58z"/>
      <path d="M38 220c14-25 36-34 65-27 24 6 38 22 42 47-17 20-39 27-64 20-27-8-41-21-43-40z"/>
    </g>
    <g fill="#48584a" opacity=".62">
      <path d="M122 118c14-18 32-22 54-12 17 9 25 23 23 43-16 13-35 14-55 4-19-10-26-21-22-35z"/>
      <path d="M94 216c17-15 36-16 57-3 16 11 21 26 15 46-20 11-41 9-61-6-17-13-21-25-11-37z"/>
    </g>
    <path d="M98 172c14 8 28 12 44 12M152 122c12 6 25 9 38 9" stroke="#f2efe4" stroke-width="8" stroke-linecap="round" opacity=".5"/>
    <path d="M188 250c10 5 21 8 33 8" stroke="#f2efe4" stroke-width="7" stroke-linecap="round" opacity=".42"/>
  </g>
</svg>
