<svg xmlns="http://www.w3.org/2000/svg" viewBox="0 0 220 160" role="img" aria-label="">
  <g fill="none" fill-rule="evenodd">
    <path d="M28 150l16-58c2-8 8-13 16-14l52-6c9-1 16 3 20 11l24 46 6 21z" fill="#525b54" opacity=".9"/>
    <path d="M58 150l10-44 44-5 22 49z" fill="#39423b" opacity=".85"/>
    <path d="M120 94l34-10c7-2 13 1 16 7l14 33 4 26-52 0z" fill="#454e47" opacity=".8"/>
    <path d="M40 102l24-4M52 122l20-3" stroke="#2c342e" stroke-width="4" stroke-linecap="round" opacity=".7"/>
    <path d="M24 152c6-10 10-21 12-33M196 152c-4-8-6-17-6-27" stroke="#5a6a54" stroke-width="4" stroke-linecap="round" opacity=".8"/>
    <path d="M36 148c28-8 57-11 88-9" stroke="#efeadb" stroke-width="5" stroke-linecap="round" opacity=".4"/>
  </g>
</svg>
