<svg xmlns="http://www.w3.org/2000/svg" viewBox="0 0 240 360" role="img" aria-label="">
  <g fill="none" fill-rule="evenodd">
    <path d="M30 353c9-3 15-9 17-18l5-25c1-6 5-9 11-10l114-2c6 0 10 3 11 9l6 27c2 8 7 14 15 17l-2 5-175 3z" fill="#8b8272" opacity=".82"/>
    <path d="M46 300l148-2 5 19-156 3z" fill="#7b7263" opacity=".5"/>
    <path d="M64 300l7-116c1-7 4-11 11-12l76-1c7 0 10 4 11 11l8 117z" fill="#7d7568" opacity=".88"/>
    <path d="M71 262c33 7 66 7 98 1M74 226c30 6 61 6 91 1M77 190c28 5 56 5 85 0" stroke="#655d4d" stroke-width="4" stroke-linecap="round" opacity=".45"/>
    <path d="M61 183l10-1 1-12 13-1v11l16-1v-12l14-1v12l17-1v-12l14 0v12l13-1v-11l12 1 1 12 8 0-2 12-116 2z" fill="#6b6355" opacity=".9"/>
    <path d="M85 170l7-38c1-5 4-8 9-8h39c5 0 8 3 9 8l8 38z" fill="#6e675b" opacity=".88"/>
    <path d="M61 132c14 5 27 8 41 8h37c14 0 27-3 41-9-3 10-9 16-17 19l-84 1c-9-2-15-9-18-19z" fill="#37392f" opacity=".92"/>
    <path d="M59 133c-4-2-7-6-9-12M181 132c4-2 7-6 9-11" stroke="#33352c" stroke-width="6" stroke-linecap="round" opacity=".92"/>
    <path d="M97 122l6-21c1-4 4-6 8-6h19c4 0 7 2 8 6l6 21z" fill="#5d564b" opacity=".85"/>
    <path d="M89 102c11 4 21 6 31 6 11 0 21-2 32-6-2 8-7 13-14 15h-35c-7-2-11-7-14-15z" fill="#31332b" opacity=".94"/>
    <path d="M87 103c-3-2-5-5-7-9M153 102c3-2 5-5 7-9" stroke="#2e302a" stroke-width="5" stroke-linecap="round" opacity=".9"/>
    <path d="M106 353v-45c0-9 6-15 14-15s14 6 14 15v45z" fill="#3a3d36" opacity=".95"/>
    <path d="M111 353v-41c0-6 4-10 9-10 6 0 10 4 10 10v41z" fill="#8f4130" opacity=".82"/>
    <path d="M92 234l9 0 1 21-10 0zM139 233l9 0 1 21-10 0z" fill="#3a3d36" opacity=".78"/>
    <path d="M64 296c-4-24-3-48 2-74M176 297c4-26 3-51-3-77" stroke="#efeadb" stroke-width="5" stroke-linecap="round" opacity=".5"/>
    <path d="M53 351c22-4 44-6 67-6M140 346c17 0 33 2 49 5" stroke="#a99f8b" stroke-width="6" stroke-linecap="round" opacity=".38"/>
  </g>
</svg>
