<svg xmlns="http://www.w3.org/2000/svg" width="1600" height="1000" viewBox="0 0 1600 1000"><rect width="1600" height="1000" fill="#023047"/><circle cx="1420" cy="120" r="250" fill="#ffb703" opacity=".25"/><circle cx="150" cy="900" r="300" fill="#219ebc" opacity=".16"/><circle cx="530" cy="490" r="210" fill="#ffb703"/><g stroke="#219ebc" stroke-width="26" stroke-linecap="round"><path d="M530 165v-90M530 905v-90M205 490h-90M945 490h-90M300 260l-70-70M760 720l70 70M300 720l-70 70M760 260l70-70"/></g><path d="M850 740c60-210 160-330 300-360 135 25 230 150 280 360z" fill="#219ebc"/><path d="M970 640l175-200 170 200z" fill="#fff" opacity=".8"/><rect x="120" y="90" width="180" height="18" rx="9" fill="#fff" opacity=".8"/><rect x="120" y="125" width="90" height="18" rx="9" fill="#fff" opacity=".45"/></svg>